<svg xmlns="http://www.w3.org/2000/svg" viewBox="-48.510000000000005 119.46199999999999 672.0200602539062 376.68600038146974"><rect height="100%" width="100%" x="-48.510000000000005" y="119.46199999999999" fill="rgba(40, 67, 137, 1)"/> <svg xmlns="http://www.w3.org/2000/svg" xmlns:xlink="http://www.w3.org/1999/xlink" version="1.1" id="Layer_1" x="21.49" y="189.462" viewBox="169.10000610351562 516.3326416015625 1661.800048828125 967.3673095703125" xml:space="preserve" height="112.75985622588134" width="193.7054282306382" preserveAspectRatio="xMinYMin" enable-background="new 0 0 2000 2000" style="overflow: visible;"><rect id="XMLID_58_" x="568.9" y="585.3" transform="matrix(0.4071 0.9134 -0.9134 0.4071 1223.6224 32.8645)" width="35.1" height="747.4" style="fill: #E37627; fill-opacity: 1;"></rect><rect id="XMLID_57_" x="370" y="1048.7" width="35.1" height="421.3" style="fill: #E37627; fill-opacity: 1;"></rect><rect id="XMLID_56_" x="169.1" y="1448.6" width="1661.8" height="35.1" style="fill: #E37627; fill-opacity: 1;"></rect><polygon id="XMLID_55_" points="678.2,1464.2 643.1,1464.2 643.1,1091.6 1321.8,1091.6 1321.8,1462.2 1286.7,1462.2     1286.7,1126.7 678.2,1126.7   " style="fill: #E37627; fill-opacity: 1;"></polygon><polygon id="XMLID_54_" points="838.1,1470 803,1470 803,1212.5 531.9,1212.5 531.9,1466.1 496.8,1466.1 496.8,1177.4     838.1,1177.4   " style="fill: #E37627; fill-opacity: 1;"></polygon><rect id="XMLID_37_" x="910.3" y="580.6" width="35.1" height="879.7" style="fill: #E37627; fill-opacity: 1;"></rect><rect id="XMLID_36_" x="783.6" y="708.3" transform="matrix(0.8818 0.4717 -0.4717 0.8818 483.701 -477.8704)" width="822.9" height="35.1" style="fill: #E37627; fill-opacity: 1;"></rect><rect id="XMLID_35_" x="1411.6" y="855.6" width="35.1" height="610.5" style="fill: #E37627; fill-opacity: 1;"></rect><polygon id="XMLID_83_" points="1617.3,1456.4 1639.8,1187.2 1662.2,1456.4   " style="fill: #E37627; fill-opacity: 1;"></polygon><polygon id="XMLID_117_" points="1629.8,1358.1 1592.9,1300 1648.4,1340.7   " style="fill: #E37627; fill-opacity: 1;"></polygon><polygon id="XMLID_115_" points="1630.5,1306 1681,1258.5 1651,1321   " style="fill: #E37627; fill-opacity: 1;"></polygon><path id="XMLID_32_" d="M1775.4,1389.1h-275.2l137.6-381.6L1775.4,1389.1z M1536.3,1363.7h203l-101.5-281.5L1536.3,1363.7z" style="fill: #E37627; fill-opacity: 1;"></path></svg> <svg xmlns="http://www.w3.org/2000/svg" y="407.048" viewBox="1.5099999904632568 8.940000534057617 468.69000244140625 19.100000381469727" x="53.155" height="19.100000381469727" width="468.69000244140625" style="overflow: visible;"><g fill="#FC832B" fill-opacity="1" style=""><path d="M19.18 18.48L19.18 18.48Q19.18 20.63 18.65 22.39Q18.12 24.15 17.03 25.42Q15.95 26.69 14.28 27.36Q12.62 28.04 10.35 28.04L10.35 28.04Q8.07 28.04 6.41 27.36Q4.75 26.69 3.66 25.42Q2.58 24.15 2.04 22.38Q1.51 20.62 1.51 18.46L1.51 18.46Q1.51 15.58 2.46 13.44Q3.40 11.30 5.37 10.12Q7.34 8.94 10.37 8.94L10.37 8.94Q13.39 8.94 15.34 10.12Q17.29 11.30 18.24 13.44Q19.18 15.59 19.18 18.48ZM5.64 18.48L5.64 18.48Q5.64 20.43 6.13 21.83Q6.61 23.23 7.66 23.99Q8.70 24.74 10.35 24.74L10.35 24.74Q12.02 24.74 13.06 23.99Q14.10 23.23 14.58 21.83Q15.06 20.43 15.06 18.48L15.06 18.48Q15.06 15.56 13.96 13.89Q12.87 12.21 10.37 12.21L10.37 12.21Q8.71 12.21 7.66 12.97Q6.61 13.72 6.13 15.13Q5.64 16.53 5.64 18.48ZM36.51 9.23L40.48 9.23L34.17 27.79L29.88 27.79L23.58 9.23L27.56 9.23L31.05 20.27Q31.14 20.55 31.34 21.32Q31.54 22.09 31.75 22.95Q31.96 23.80 32.04 24.36L32.04 24.36Q32.11 23.80 32.31 22.95Q32.51 22.10 32.70 21.33Q32.90 20.57 32.99 20.27L32.99 20.27L36.51 9.23ZM56.39 24.54L56.39 27.79L45.70 27.79L45.70 9.23L56.39 9.23L56.39 12.45L49.64 12.45L49.64 16.53L55.92 16.53L55.92 19.75L49.64 19.75L49.64 24.54L56.39 24.54ZM63.15 9.23L68.56 9.23Q71.09 9.23 72.73 9.84Q74.38 10.45 75.18 11.68Q75.98 12.91 75.98 14.79L75.98 14.79Q75.98 16.06 75.49 17.01Q75.01 17.96 74.23 18.62Q73.44 19.28 72.52 19.70L72.52 19.70L77.98 27.79L73.62 27.79L69.19 20.67L67.09 20.67L67.09 27.79L63.15 27.79L63.15 9.23ZM68.28 12.45L68.28 12.45L67.09 12.45L67.09 17.47L68.36 17.47Q70.32 17.47 71.16 16.81Q72.00 16.16 72.00 14.89L72.00 14.89Q72.00 13.57 71.10 13.01Q70.19 12.45 68.28 12.45ZM103.81 13.38L103.81 13.38Q103.81 14.66 103.27 15.60Q102.74 16.54 101.83 17.14Q100.92 17.74 99.80 18.01L99.80 18.01L99.80 18.09Q102.03 18.37 103.19 19.46Q104.35 20.55 104.35 22.38L104.35 22.38Q104.35 24.01 103.56 25.29Q102.77 26.57 101.12 27.31Q99.46 28.04 96.86 28.04L96.86 28.04Q95.33 28.04 94.00 27.80Q92.67 27.55 91.50 27.04L91.50 27.04L91.50 23.70Q92.70 24.31 94.01 24.62Q95.31 24.93 96.44 24.93L96.44 24.93Q98.55 24.93 99.40 24.20Q100.24 23.47 100.24 22.15L100.24 22.15Q100.24 21.38 99.85 20.85Q99.45 20.31 98.48 20.03Q97.51 19.75 95.77 19.75L95.77 19.75L94.36 19.75L94.36 16.75L95.80 16.75Q97.51 16.75 98.40 16.42Q99.30 16.10 99.62 15.53Q99.95 14.97 99.95 14.24L99.95 14.24Q99.95 13.25 99.34 12.70Q98.73 12.14 97.31 12.14L97.31 12.14Q96.42 12.14 95.69 12.36Q94.96 12.58 94.37 12.89Q93.79 13.20 93.35 13.50L93.35 13.50L91.53 10.79Q92.62 10.00 94.09 9.48Q95.55 8.96 97.59 8.96L97.59 8.96Q100.46 8.96 102.13 10.12Q103.81 11.27 103.81 13.38ZM122.18 18.51L122.18 18.51Q122.18 20.76 121.83 22.52Q121.49 24.29 120.72 25.52Q119.95 26.75 118.71 27.40Q117.46 28.04 115.68 28.04L115.68 28.04Q113.45 28.04 112.01 26.91Q110.58 25.77 109.89 23.63Q109.21 21.49 109.21 18.51L109.21 18.51Q109.21 15.50 109.84 13.36Q110.47 11.22 111.89 10.08Q113.31 8.94 115.68 8.94L115.68 8.94Q117.91 8.94 119.35 10.07Q120.79 11.21 121.49 13.35Q122.18 15.49 122.18 18.51ZM113.11 18.51L113.11 18.51Q113.11 20.63 113.34 22.05Q113.58 23.46 114.14 24.17Q114.69 24.88 115.68 24.88L115.68 24.88Q116.66 24.88 117.23 24.18Q117.79 23.47 118.03 22.06Q118.27 20.64 118.27 18.51L118.27 18.51Q118.27 16.39 118.03 14.97Q117.79 13.55 117.23 12.83Q116.66 12.11 115.68 12.11L115.68 12.11Q114.69 12.11 114.14 12.83Q113.58 13.55 113.34 14.97Q113.11 16.39 113.11 18.51ZM139.93 9.23L143.78 16.87L147.65 9.23L151.89 9.23L145.74 20.57L145.74 27.79L141.82 27.79L141.82 20.69L135.67 9.23L139.93 9.23ZM167.81 24.54L167.81 27.79L157.12 27.79L157.12 9.23L167.81 9.23L167.81 12.45L161.05 12.45L161.05 16.53L167.34 16.53L167.34 19.75L161.05 19.75L161.05 24.54L167.81 24.54ZM190.17 27.79L185.93 27.79L184.58 23.37L177.82 23.37L176.47 27.79L172.23 27.79L178.78 9.15L183.59 9.15L190.17 27.79ZM178.81 20.07L183.64 20.07L182.30 15.75Q182.17 15.32 181.96 14.64Q181.75 13.96 181.54 13.26Q181.33 12.56 181.21 12.04L181.21 12.04Q181.08 12.56 180.86 13.32Q180.64 14.09 180.43 14.78Q180.23 15.46 180.14 15.75L180.14 15.75L178.81 20.07ZM195.39 9.23L200.80 9.23Q203.33 9.23 204.97 9.84Q206.62 10.45 207.42 11.68Q208.22 12.91 208.22 14.79L208.22 14.79Q208.22 16.06 207.73 17.01Q207.25 17.96 206.47 18.62Q205.68 19.28 204.76 19.70L204.76 19.70L210.22 27.79L205.86 27.79L201.43 20.67L199.33 20.67L199.33 27.79L195.39 27.79L195.39 9.23ZM200.52 12.45L200.52 12.45L199.33 12.45L199.33 17.47L200.60 17.47Q202.56 17.47 203.40 16.81Q204.24 16.16 204.24 14.89L204.24 14.89Q204.24 13.57 203.34 13.01Q202.43 12.45 200.52 12.45ZM226.40 22.64L226.40 22.64Q226.40 24.29 225.60 25.50Q224.80 26.72 223.27 27.38Q221.74 28.04 219.56 28.04L219.56 28.04Q218.60 28.04 217.68 27.92Q216.76 27.79 215.91 27.54Q215.07 27.29 214.31 26.93L214.31 26.93L214.31 23.27Q215.63 23.85 217.05 24.32Q218.47 24.79 219.87 24.79L219.87 24.79Q220.83 24.79 221.42 24.54Q222.01 24.29 222.28 23.84Q222.54 23.40 222.54 22.83L222.54 22.83Q222.54 22.13 222.07 21.63Q221.61 21.14 220.79 20.71Q219.97 20.27 218.94 19.78L218.94 19.78Q218.29 19.47 217.53 19.04Q216.77 18.60 216.08 17.96Q215.40 17.33 214.96 16.42Q214.52 15.51 214.52 14.24L214.52 14.24Q214.52 12.58 215.28 11.40Q216.04 10.22 217.46 9.59Q218.88 8.96 220.81 8.96L220.81 8.96Q222.25 8.96 223.57 9.30Q224.88 9.64 226.32 10.27L226.32 10.27L225.05 13.33Q223.76 12.81 222.75 12.52Q221.73 12.24 220.68 12.24L220.68 12.24Q219.94 12.24 219.42 12.47Q218.90 12.71 218.63 13.13Q218.37 13.56 218.37 14.12L218.37 14.12Q218.37 14.78 218.76 15.23Q219.14 15.68 219.92 16.10Q220.70 16.52 221.87 17.08L221.87 17.08Q223.29 17.75 224.30 18.48Q225.31 19.21 225.86 20.19Q226.40 21.18 226.40 22.64ZM259.15 18.48L259.15 18.48Q259.15 20.63 258.61 22.39Q258.08 24.15 256.99 25.42Q255.91 26.69 254.25 27.36Q252.58 28.04 250.31 28.04L250.31 28.04Q248.04 28.04 246.38 27.36Q244.71 26.69 243.63 25.42Q242.54 24.15 242.01 22.38Q241.47 20.62 241.47 18.46L241.47 18.46Q241.47 15.58 242.42 13.44Q243.37 11.30 245.33 10.12Q247.30 8.94 250.34 8.94L250.34 8.94Q253.36 8.94 255.31 10.12Q257.25 11.30 258.20 13.44Q259.15 15.59 259.15 18.48ZM245.60 18.48L245.60 18.48Q245.60 20.43 246.09 21.83Q246.58 23.23 247.62 23.99Q248.66 24.74 250.31 24.74L250.31 24.74Q251.99 24.74 253.03 23.99Q254.07 23.23 254.54 21.83Q255.02 20.43 255.02 18.48L255.02 18.48Q255.02 15.56 253.93 13.89Q252.84 12.21 250.34 12.21L250.34 12.21Q248.67 12.21 247.63 12.97Q246.58 13.72 246.09 15.13Q245.60 16.53 245.60 18.48ZM269.75 20.45L269.75 27.79L265.88 27.79L265.88 9.23L276.52 9.23L276.52 12.45L269.75 12.45L269.75 17.24L276.05 17.24L276.05 20.45L269.75 20.45ZM303.37 24.54L303.37 27.79L292.68 27.79L292.68 9.23L303.37 9.23L303.37 12.45L296.62 12.45L296.62 16.53L302.90 16.53L302.90 19.75L296.62 19.75L296.62 24.54L303.37 24.54ZM318.87 18.43L325.14 27.79L320.65 27.79L316.33 20.77L312.01 27.79L307.80 27.79L313.96 18.22L308.19 9.23L312.53 9.23L316.53 15.91L320.46 9.23L324.70 9.23L318.87 18.43ZM330.36 9.23L336.29 9.23Q339.89 9.23 341.54 10.77Q343.19 12.31 343.19 15.02L343.19 15.02Q343.19 16.24 342.82 17.35Q342.45 18.46 341.62 19.32Q340.79 20.19 339.40 20.69Q338.02 21.19 335.99 21.19L335.99 21.19L334.30 21.19L334.30 27.79L330.36 27.79L330.36 9.23ZM336.09 12.45L336.09 12.45L334.30 12.45L334.30 17.96L335.59 17.96Q336.70 17.96 337.51 17.67Q338.32 17.38 338.77 16.76Q339.21 16.14 339.21 15.16L339.21 15.16Q339.21 13.79 338.45 13.12Q337.69 12.45 336.09 12.45ZM360.27 24.54L360.27 27.79L349.58 27.79L349.58 9.23L360.27 9.23L360.27 12.45L353.52 12.45L353.52 16.53L359.80 16.53L359.80 19.75L353.52 19.75L353.52 24.54L360.27 24.54ZM367.03 9.23L372.44 9.23Q374.96 9.23 376.61 9.84Q378.25 10.45 379.05 11.68Q379.85 12.91 379.85 14.79L379.85 14.79Q379.85 16.06 379.37 17.01Q378.89 17.96 378.10 18.62Q377.31 19.28 376.40 19.70L376.40 19.70L381.86 27.79L377.49 27.79L373.06 20.67L370.97 20.67L370.97 27.79L367.03 27.79L367.03 9.23ZM372.16 12.45L372.16 12.45L370.97 12.45L370.97 17.47L372.24 17.47Q374.19 17.47 375.03 16.81Q375.88 16.16 375.88 14.89L375.88 14.89Q375.88 13.57 374.97 13.01Q374.06 12.45 372.16 12.45ZM391.02 27.79L387.08 27.79L387.08 9.23L391.02 9.23L391.02 27.79ZM409.27 24.54L409.27 27.79L398.58 27.79L398.58 9.23L409.27 9.23L409.27 12.45L402.51 12.45L402.51 16.53L408.80 16.53L408.80 19.75L402.51 19.75L402.51 24.54L409.27 24.54ZM432.50 9.23L432.50 27.79L427.49 27.79L419.42 13.75L419.31 13.75Q419.36 14.63 419.39 15.51Q419.43 16.40 419.47 17.28Q419.51 18.17 419.55 19.06L419.55 19.06L419.55 27.79L416.03 27.79L416.03 9.23L420.99 9.23L429.06 23.13L429.14 23.13Q429.12 22.27 429.08 21.42Q429.04 20.57 429.01 19.72Q428.98 18.87 428.95 18.01L428.95 18.01L428.95 9.23L432.50 9.23ZM447.94 12.24L447.94 12.24Q446.81 12.24 445.94 12.68Q445.07 13.11 444.48 13.94Q443.89 14.76 443.59 15.93Q443.28 17.10 443.28 18.56L443.28 18.56Q443.28 20.53 443.77 21.92Q444.26 23.31 445.29 24.04Q446.31 24.77 447.94 24.77L447.94 24.77Q449.07 24.77 450.21 24.51Q451.34 24.26 452.68 23.79L452.68 23.79L452.68 27.09Q451.44 27.60 450.25 27.82Q449.06 28.04 447.57 28.04L447.57 28.04Q444.70 28.04 442.86 26.86Q441.01 25.67 440.12 23.53Q439.23 21.39 439.23 18.54L439.23 18.54Q439.23 16.43 439.80 14.68Q440.37 12.92 441.48 11.64Q442.58 10.36 444.21 9.66Q445.83 8.96 447.94 8.96L447.94 8.96Q449.32 8.96 450.71 9.31Q452.10 9.66 453.37 10.27L453.37 10.27L452.10 13.47Q451.06 12.97 450.01 12.61Q448.96 12.24 447.94 12.24ZM470.20 24.54L470.20 27.79L459.51 27.79L459.51 9.23L470.20 9.23L470.20 12.45L463.45 12.45L463.45 16.53L469.73 16.53L469.73 19.75L463.45 19.75L463.45 24.54L470.20 24.54Z" transform="translate(0, 0)"></path></g></svg> <svg xmlns="http://www.w3.org/2000/svg" y="336.385" viewBox="3.8600001335144043 14.779999732971191 532.02001953125 31.60000228881836" x="21.49004072265625" height="31.60000228881836" width="532.02001953125" style="overflow: visible;"><g fill="#FC832B" fill-opacity="1" style=""><path d="M21.54 40.59L21.54 45.96L3.86 45.96L3.86 15.26L21.54 15.26L21.54 20.60L10.37 20.60L10.37 27.34L20.77 27.34L20.77 32.67L10.37 32.67L10.37 40.59L21.54 40.59ZM53.41 30.32L53.41 30.32Q53.41 35.50 51.43 38.98Q49.45 42.45 45.69 44.21Q41.93 45.96 36.64 45.96L36.64 45.96L27.95 45.96L27.95 15.26L37.58 15.26Q42.41 15.26 45.96 16.98Q49.51 18.69 51.46 22.04Q53.41 25.38 53.41 30.32ZM46.65 30.49L46.65 30.49Q46.65 27.08 45.66 24.89Q44.66 22.70 42.72 21.65Q40.77 20.60 37.92 20.60L37.92 20.60L34.45 20.60L34.45 40.59L37.25 40.59Q42.01 40.59 44.33 38.04Q46.65 35.50 46.65 30.49ZM66.28 45.96L59.78 45.96L59.78 15.26L66.28 15.26L66.28 45.96ZM101.24 15.26L101.24 45.96L92.97 45.96L79.62 22.74L79.43 22.74Q79.51 24.19 79.58 25.66Q79.64 27.13 79.70 28.59Q79.76 30.05 79.83 31.52L79.83 31.52L79.83 45.96L74.01 45.96L74.01 15.26L82.22 15.26L95.55 38.25L95.70 38.25Q95.66 36.83 95.60 35.42Q95.53 34.01 95.48 32.61Q95.43 31.20 95.39 29.79L95.39 29.79L95.39 15.26L101.24 15.26ZM108.97 45.96L108.97 15.26L118.52 15.26Q124.65 15.26 127.80 16.99Q130.95 18.71 130.95 23.03L130.95 23.03Q130.95 24.78 130.40 26.18Q129.84 27.59 128.79 28.49Q127.74 29.39 126.23 29.67L126.23 29.67L126.23 29.88Q127.76 30.19 129 30.96Q130.24 31.73 130.98 33.18Q131.73 34.64 131.73 37.06L131.73 37.06Q131.73 39.85 130.36 41.85Q129 43.84 126.47 44.90Q123.94 45.96 120.45 45.96L120.45 45.96L108.97 45.96ZM115.48 20.60L115.48 27.42L119.26 27.42Q122.09 27.42 123.18 26.53Q124.28 25.64 124.28 23.89L124.28 23.89Q124.28 22.13 122.98 21.36Q121.69 20.60 118.90 20.60L118.90 20.60L115.48 20.60ZM119.51 32.59L115.48 32.59L115.48 40.59L119.72 40.59Q122.66 40.59 123.81 39.45Q124.97 38.32 124.97 36.41L124.97 36.41Q124.97 35.27 124.46 34.41Q123.96 33.55 122.77 33.07Q121.59 32.59 119.51 32.59L119.51 32.59ZM156.36 15.26L162.85 15.26L162.85 35.13Q162.85 38.30 161.45 40.85Q160.05 43.40 157.23 44.89Q154.41 46.38 150.12 46.38L150.12 46.38Q144.03 46.38 140.84 43.27Q137.65 40.17 137.65 35.04L137.65 35.04L137.65 15.26L144.14 15.26L144.14 34.06Q144.14 37.86 145.69 39.39Q147.25 40.92 150.29 40.92L150.29 40.92Q152.43 40.92 153.76 40.19Q155.10 39.45 155.73 37.92Q156.36 36.39 156.36 34.01L156.36 34.01L156.36 15.26ZM170.36 15.26L179.31 15.26Q183.48 15.26 186.20 16.27Q188.92 17.28 190.25 19.32Q191.57 21.35 191.57 24.46L191.57 24.46Q191.57 26.56 190.77 28.13Q189.97 29.71 188.67 30.80Q187.37 31.89 185.86 32.59L185.86 32.59L194.89 45.96L187.66 45.96L180.34 34.18L176.87 34.18L176.87 45.96L170.36 45.96L170.36 15.26ZM178.84 20.60L178.84 20.60L176.87 20.60L176.87 28.89L178.97 28.89Q182.20 28.89 183.60 27.81Q185.00 26.73 185.00 24.63L185.00 24.63Q185.00 22.44 183.50 21.52Q181.99 20.60 178.84 20.60ZM210.40 34.14L210.40 28.72L222.58 28.72L222.58 44.64Q220.17 45.44 217.56 45.91Q214.96 46.38 211.66 46.38L211.66 46.38Q207.08 46.38 203.89 44.57Q200.70 42.77 199.04 39.24Q197.38 35.71 197.38 30.57L197.38 30.57Q197.38 25.74 199.24 22.21Q201.10 18.69 204.68 16.75Q208.26 14.82 213.43 14.82L213.43 14.82Q215.86 14.82 218.23 15.35Q220.61 15.87 222.54 16.71L222.54 16.71L220.38 21.92Q218.97 21.21 217.16 20.72Q215.36 20.24 213.38 20.24L213.38 20.24Q210.55 20.24 208.46 21.54Q206.37 22.84 205.23 25.18Q204.08 27.53 204.08 30.70L204.08 30.70Q204.08 33.70 204.90 36.02Q205.72 38.34 207.48 39.65Q209.25 40.96 212.08 40.96L212.08 40.96Q213.47 40.96 214.42 40.83Q215.38 40.69 216.22 40.54L216.22 40.54L216.22 34.14L210.40 34.14ZM255.04 15.26L255.04 45.96L248.55 45.96L248.55 32.71L236.40 32.71L236.40 45.96L229.89 45.96L229.89 15.26L236.40 15.26L236.40 27.29L248.55 27.29L248.55 15.26L255.04 15.26ZM291.64 40.59L291.64 45.96L273.96 45.96L273.96 15.26L291.64 15.26L291.64 20.60L280.47 20.60L280.47 27.34L290.86 27.34L290.86 32.67L280.47 32.67L280.47 40.59L291.64 40.59ZM312.48 30.49L322.86 45.96L315.42 45.96L308.29 34.35L301.15 45.96L294.18 45.96L304.36 30.13L294.83 15.26L302.01 15.26L308.62 26.31L315.11 15.26L322.12 15.26L312.48 30.49ZM338.56 20.68L338.56 45.96L332.05 45.96L332.05 20.68L323.72 20.68L323.72 15.26L346.90 15.26L346.90 20.68L338.56 20.68ZM369.30 40.59L369.30 45.96L351.62 45.96L351.62 15.26L369.30 15.26L369.30 20.60L358.13 20.60L358.13 27.34L368.52 27.34L368.52 32.67L358.13 32.67L358.13 40.59L369.30 40.59ZM402.94 15.26L402.94 45.96L394.66 45.96L381.31 22.74L381.12 22.74Q381.21 24.19 381.27 25.66Q381.33 27.13 381.39 28.59Q381.46 30.05 381.52 31.52L381.52 31.52L381.52 45.96L375.70 45.96L375.70 15.26L383.91 15.26L397.25 38.25L397.39 38.25Q397.35 36.83 397.29 35.42Q397.23 34.01 397.17 32.61Q397.12 31.20 397.08 29.79L397.08 29.79L397.08 15.26L402.94 15.26ZM428.78 37.44L428.78 37.44Q428.78 40.17 427.46 42.18Q426.14 44.20 423.61 45.29Q421.08 46.38 417.47 46.38L417.47 46.38Q415.87 46.38 414.35 46.17Q412.83 45.96 411.43 45.55Q410.03 45.14 408.77 44.53L408.77 44.53L408.77 38.49Q410.96 39.45 413.31 40.23Q415.66 41.01 417.97 41.01L417.97 41.01Q419.56 41.01 420.54 40.59Q421.52 40.17 421.96 39.43Q422.40 38.70 422.40 37.75L422.40 37.75Q422.40 36.60 421.62 35.78Q420.85 34.96 419.49 34.24Q418.14 33.53 416.44 32.71L416.44 32.71Q415.37 32.21 414.11 31.48Q412.85 30.76 411.71 29.71Q410.58 28.66 409.85 27.16Q409.13 25.66 409.13 23.56L409.13 23.56Q409.13 20.81 410.39 18.85Q411.65 16.90 413.99 15.86Q416.33 14.82 419.52 14.82L419.52 14.82Q421.92 14.82 424.09 15.38Q426.26 15.94 428.64 16.99L428.64 16.99L426.54 22.05Q424.42 21.19 422.74 20.71Q421.06 20.24 419.31 20.24L419.31 20.24Q418.10 20.24 417.23 20.63Q416.37 21.02 415.93 21.72Q415.49 22.42 415.49 23.35L415.49 23.35Q415.49 24.44 416.13 25.18Q416.77 25.93 418.06 26.62Q419.35 27.32 421.29 28.24L421.29 28.24Q423.64 29.35 425.31 30.56Q426.98 31.77 427.88 33.39Q428.78 35.02 428.78 37.44ZM440.85 45.96L434.35 45.96L434.35 15.26L440.85 15.26L440.85 45.96ZM476.44 30.57L476.44 30.57Q476.44 34.12 475.56 37.03Q474.68 39.93 472.88 42.03Q471.09 44.13 468.34 45.26Q465.59 46.38 461.83 46.38L461.83 46.38Q458.07 46.38 455.32 45.26Q452.57 44.13 450.78 42.03Q448.98 39.93 448.10 37.02Q447.22 34.10 447.22 30.53L447.22 30.53Q447.22 25.76 448.78 22.22Q450.35 18.69 453.60 16.73Q456.85 14.78 461.87 14.78L461.87 14.78Q466.87 14.78 470.09 16.73Q473.31 18.69 474.88 22.23Q476.44 25.78 476.44 30.57ZM454.04 30.57L454.04 30.57Q454.04 33.78 454.85 36.10Q455.66 38.42 457.38 39.67Q459.10 40.92 461.83 40.92L461.83 40.92Q464.60 40.92 466.32 39.67Q468.04 38.42 468.83 36.10Q469.62 33.78 469.62 30.57L469.62 30.57Q469.62 25.74 467.81 22.97Q466.01 20.20 461.87 20.20L461.87 20.20Q459.12 20.20 457.39 21.45Q455.66 22.70 454.85 25.02Q454.04 27.34 454.04 30.57ZM510.04 15.26L510.04 45.96L501.76 45.96L488.41 22.74L488.22 22.74Q488.31 24.19 488.37 25.66Q488.43 27.13 488.50 28.59Q488.56 30.05 488.62 31.52L488.62 31.52L488.62 45.96L482.81 45.96L482.81 15.26L491.01 15.26L504.35 38.25L504.49 38.25Q504.45 36.83 504.39 35.42Q504.33 34.01 504.27 32.61Q504.22 31.20 504.18 29.79L504.18 29.79L504.18 15.26L510.04 15.26ZM535.88 37.44L535.88 37.44Q535.88 40.17 534.56 42.18Q533.24 44.20 530.71 45.29Q528.18 46.38 524.57 46.38L524.57 46.38Q522.97 46.38 521.45 46.17Q519.93 45.96 518.53 45.55Q517.13 45.14 515.87 44.53L515.87 44.53L515.87 38.49Q518.06 39.45 520.41 40.23Q522.76 41.01 525.07 41.01L525.07 41.01Q526.67 41.01 527.64 40.59Q528.62 40.17 529.06 39.43Q529.50 38.70 529.50 37.75L529.50 37.75Q529.50 36.60 528.72 35.78Q527.95 34.96 526.59 34.24Q525.24 33.53 523.54 32.71L523.54 32.71Q522.47 32.21 521.21 31.48Q519.95 30.76 518.81 29.71Q517.68 28.66 516.96 27.16Q516.23 25.66 516.23 23.56L516.23 23.56Q516.23 20.81 517.49 18.85Q518.75 16.90 521.09 15.86Q523.43 14.82 526.62 14.82L526.62 14.82Q529.02 14.82 531.19 15.38Q533.36 15.94 535.74 16.99L535.74 16.99L533.64 22.05Q531.52 21.19 529.84 20.71Q528.16 20.24 526.41 20.24L526.41 20.24Q525.20 20.24 524.34 20.63Q523.47 21.02 523.03 21.72Q522.59 22.42 522.59 23.35L522.59 23.35Q522.59 24.44 523.23 25.18Q523.87 25.93 525.16 26.62Q526.46 27.32 528.39 28.24L528.39 28.24Q530.74 29.35 532.41 30.56Q534.08 31.77 534.98 33.39Q535.88 35.02 535.88 37.44Z" transform="translate(0, 0)"></path></g></svg></svg>